<?xml version="1.0" encoding="UTF-8" standalone="no"?>
<svg
   xmlns:dc="http://purl.org/dc/elements/1.1/"
   xmlns:cc="http://creativecommons.org/ns#"
   xmlns:rdf="http://www.w3.org/1999/02/22-rdf-syntax-ns#"
   xmlns:svg="http://www.w3.org/2000/svg"
   xmlns="http://www.w3.org/2000/svg"
   xmlns:sodipodi="http://sodipodi.sourceforge.net/DTD/sodipodi-0.dtd"
   xmlns:inkscape="http://www.inkscape.org/namespaces/inkscape"
   width="55.388783"
   height="48.593002"
   viewBox="0 0 55.388783 48.593002"
   fill="none"
   version="1.1"
   id="svg6"
   sodipodi:docname="Group 1.svg"
   inkscape:version="1.0.1 (0767f8302a, 2020-10-17)">
  <metadata
     id="metadata12">
    <rdf:RDF>
      <cc:Work
         rdf:about="">
        <dc:format>image/svg+xml</dc:format>
        <dc:type
           rdf:resource="http://purl.org/dc/dcmitype/StillImage" />
        <dc:title></dc:title>
      </cc:Work>
    </rdf:RDF>
  </metadata>
  <defs
     id="defs10" />
  <sodipodi:namedview
     pagecolor="#ffffff"
     bordercolor="#666666"
     borderopacity="1"
     objecttolerance="10"
     gridtolerance="10"
     guidetolerance="10"
     inkscape:pageopacity="0"
     inkscape:pageshadow="2"
     inkscape:window-width="1848"
     inkscape:window-height="1016"
     id="namedview8"
     showgrid="false"
     fit-margin-top="0"
     fit-margin-left="0"
     fit-margin-right="0"
     fit-margin-bottom="0"
     inkscape:zoom="5.0581395"
     inkscape:cx="38.877228"
     inkscape:cy="62.133054"
     inkscape:window-x="72"
     inkscape:window-y="27"
     inkscape:window-maximized="1"
     inkscape:current-layer="svg6"
     inkscape:document-rotation="0" />
  <g
     id="g16"
     transform="matrix(0.56867052,0,0,0.56867052,-0.17059433,-0.1591231)">
    <path
       d="m 97.7,72.88 v -59 c 0,-0.9999 -0.3972,-1.9588 -1.1042,-2.6658 C 95.8888,10.5072 94.9298,10.11 93.93,10.11 h -7.4 V 2.78 C 86.53,2.44915 86.4644,2.12159 86.3369,1.81631 86.2093,1.51102 86.0225,1.23408 85.7872,1.00154 85.5518,0.768994 85.2727,0.585475 84.9659,0.461617 84.6591,0.337759 84.3308,0.276026 84,0.279996 H 68.57 C 61.306,0.290479 54.3148,3.04837 49,8 43.6852,3.04837 36.694,0.290479 29.43,0.279996 H 14 c -0.6631,0 -1.2989,0.263391 -1.7678,0.732234 C 11.7634,1.48107 11.5,2.11695 11.5,2.78 v 7.37 H 4.06999 c -0.49509,0 -0.98532,0.0975 -1.44272,0.287 -0.4574,0.1894 -0.873,0.4671 -1.22307,0.8172 -0.707017,0.707 -1.104212,1.6659 -1.104212,2.6658 v 59 c 0,0.9999 0.397195,1.9588 1.104212,2.6658 0.35007,0.3501 0.76567,0.6278 1.22307,0.8172 0.4574,0.1895 0.94763,0.287 1.44272,0.287 H 28.73 c 2.0763,8e-4 4.1292,0.4394 6.0246,1.2872 1.8953,0.8477 3.5907,2.0856 4.9754,3.6328 l 0.36,0.38 c 0.4497,0.4633 0.9344,0.8913 1.45,1.28 0.2,0.15 0.41,0.3 0.61,0.42 0.4489,0.2967 0.9165,0.5639 1.4,0.8 l 0.28,0.13 c 0.26,0.13 0.52,0.24 0.8,0.34 0.3275,0.1268 0.6613,0.237 1,0.33 0.25,0.07 0.57,0.16 0.94,0.23 0.5377,0.1081 1.0824,0.1783 1.63,0.21 h 0.76 c 0.8196,-0.002 1.637,-0.0858 2.44,-0.25 0.32,-0.06 0.59,-0.13 0.73,-0.17 0.417,-0.1028 0.8277,-0.2297 1.23,-0.38 h 0.11 l 0.62,-0.27 0.24,-0.11 c 0.5301,-0.2531 1.0414,-0.5439 1.53,-0.87 l 0.51,-0.36 c 0.5507,-0.4091 1.0659,-0.8641 1.54,-1.36 l 0.15,-0.15 0.21,-0.23 c 1.3774,-1.5527 3.0724,-2.7912 4.9703,-3.6314 1.8979,-0.8402 3.9542,-1.2627 6.0297,-1.2386 h 24.66 c 0.5002,1e-4 0.9953,-0.0994 1.4567,-0.2926 0.4613,-0.1932 0.8796,-0.4763 1.2305,-0.8327 0.3509,-0.3565 0.6273,-0.7792 0.8132,-1.2436 0.1859,-0.4643 0.2775,-0.961 0.2696,-1.4611 z M 16.47,5.28 h 13 c 3.1793,0.0076 6.3247,0.65319 9.25,1.89853 2.9252,1.24534 5.5708,3.06507 7.78,5.35147 V 16 c 0,0.663 0.2634,1.2989 0.7322,1.7678 C 47.7011,18.2366 48.3369,18.5 49,18.5 c 0.663,0 1.2989,-0.2634 1.7678,-0.7322 C 51.2366,17.2989 51.5,16.663 51.5,16 V 12.54 C 53.7139,10.2488 56.3659,8.42623 59.2984,7.18074 62.2309,5.93524 65.3839,5.29224 68.57,5.29 h 13 v 55.13 h -13 C 62.4235,60.4276 56.4411,62.4042 51.5,66.06 V 62 c 0,-0.663 -0.2634,-1.2989 -0.7322,-1.7678 C 50.2989,59.7634 49.663,59.5 49,59.5 c -0.6631,0 -1.2989,0.2634 -1.7678,0.7322 C 46.7634,60.7011 46.5,61.337 46.5,62 v 4.07 C 41.5576,62.4178 35.5754,60.4447 29.43,60.44 h -13 z M 92.7,71.65 H 69.27 c -2.7836,-0.0178 -5.5386,0.5613 -8.0795,1.698 -2.5409,1.1368 -4.8086,2.8049 -6.6505,4.892 l -0.08,0.08 1.82,1.68 -1.91,-1.62 c -0.3084,0.3084 -0.643,0.5895 -1,0.84 l -0.29,0.2 c -0.3192,0.208 -0.6534,0.3918 -1,0.55 l -0.12,0.06 -0.4,0.17 c -0.242,0.091 -0.4891,0.1678 -0.74,0.23 l -0.42,0.1 c -0.4805,0.0984 -0.9696,0.1486 -1.46,0.15 h -0.43 c -0.336,-0.0197 -0.6702,-0.0632 -1,-0.13 -0.2,0 -0.37,-0.08 -0.57,-0.14 -0.2067,-0.0521 -0.4103,-0.1155 -0.61,-0.19 L 45.89,80.03 45.76,80 C 45.4625,79.8564 45.1752,79.6927 44.9,79.51 l -0.35,-0.24 c -0.3199,-0.2398 -0.6208,-0.5039 -0.9,-0.79 l -0.18,-0.2 C 41.6156,76.2049 39.3442,74.5444 36.8043,73.4071 34.2643,72.2698 31.5129,71.6813 28.73,71.68 H 5.29999 V 15.15 H 11.47 v 47.77 c 0,0.663 0.2634,1.2989 0.7322,1.7678 0.4689,0.4688 1.1047,0.7322 1.7678,0.7322 h 15.46 c 3.3438,0.0012 6.6496,0.7082 9.7014,2.0747 3.0518,1.3665 5.7808,3.3617 8.0086,5.8553 0.2345,0.2627 0.5219,0.4729 0.8433,0.6168 0.3214,0.1439 0.6695,0.2183 1.0217,0.2183 0.3521,0 0.7003,-0.0744 1.0217,-0.2183 0.3214,-0.1439 0.6088,-0.3541 0.8433,-0.6168 2.2278,-2.4936 4.9568,-4.4888 8.0086,-5.8553 3.0518,-1.3665 6.3576,-2.0735 9.7014,-2.0747 H 84 c 0.663,0 1.2989,-0.2634 1.7678,-0.7322 C 86.2366,64.2189 86.5,63.583 86.5,62.92 V 15.15 h 6.2 z"
       fill="#000000"
       id="path2" />
    <path
       d="m 47.24,55 c 0.4682,0.4641 1.1008,0.7245 1.76,0.7245 0.6593,0 1.2918,-0.2604 1.76,-0.7245 L 64.39,41.43 c 1.0952,-1.0932 1.964,-2.3917 2.5568,-3.821 0.5928,-1.4294 0.8979,-2.9616 0.8979,-4.509 0,-1.5474 -0.3051,-3.0796 -0.8979,-4.509 C 66.354,27.1616 65.4852,25.8632 64.39,24.77 64.16,24.54 63.92,24.32 63.68,24.12 61.5885,22.416 58.9526,21.5234 56.2561,21.6061 53.5595,21.6888 50.9832,22.7411 49,24.57 47.0184,22.7351 44.4404,21.678 41.741,21.5934 39.0416,21.5089 36.4026,22.4026 34.31,24.11 c -0.25,0.21 -0.48,0.43 -0.71,0.66 -1.0951,1.0932 -1.964,2.3916 -2.5568,3.821 -0.5928,1.4294 -0.8979,2.9616 -0.8979,4.509 0,1.5474 0.3051,3.0796 0.8979,4.509 0.5928,1.4293 1.4617,2.7278 2.5568,3.821 z M 37.14,28.3 c 0.13,-0.13 0.27,-0.26 0.42,-0.38 1.0479,-0.8768 2.3737,-1.3519 3.74,-1.34 1.7239,0.007 3.3746,0.6975 4.59,1.92 l 1.35,1.35 c 0.4776,0.4537 1.1112,0.7067 1.77,0.7067 0.6588,0 1.2924,-0.253 1.77,-0.7067 l 1.34,-1.34 c 1.0668,-1.1168 2.512,-1.7953 4.0527,-1.9026 1.5408,-0.1073 3.066,0.3644 4.2773,1.3226 l 0.42,0.38 c 1.2689,1.2711 1.9816,2.9939 1.9816,4.79 0,1.7961 -0.7127,3.5188 -1.9816,4.79 L 49,49.66 37.15,37.88 c -0.6295,-0.6288 -1.1289,-1.3755 -1.4697,-2.1974 -0.3407,-0.8219 -0.5161,-1.7029 -0.5161,-2.5926 0,-0.8897 0.1754,-1.7708 0.5161,-2.5927 0.3408,-0.8219 0.8402,-1.5685 1.4697,-2.1973 z"
       fill="#000000"
       id="path4" />
  </g>
</svg>
