<?xml version="1.0" encoding="UTF-8"?><svg xmlns="http://www.w3.org/2000/svg" viewBox="0 0 131.44 118.18"><defs><style>.l{fill:#f9f9f9;}.m{fill:#241a1a;}</style></defs><g id="a"/><g id="b"><g id="c"><g><g id="d" transform="matrix(0.1171875,0,0,0.1171875,-0.29350947,-0.89701218)"><path id="e" class="l" d="M60.54,111.56c-2.83-3.17-9.89-9.35-15.7-13.73-17.2-12.99-19.54-14.87-26.52-21.3C5.45,64.68-.02,52.77,0,36.62c0-7.88,.55-10.92,2.75-15.57C6.5,13.17,12.02,7.31,19.07,3.73,24.07,1.19,26.53,.06,34.87,.02c8.73-.05,10.56,.97,15.7,3.79,6.25,3.43,12.68,10.77,14.01,15.98l.82,3.22,2.02-4.43c11.44-25.05,47.97-24.68,60.69,.62,4.03,8.03,4.48,25.16,.9,34.81-4.67,12.59-13.43,22.19-33.68,36.9-13.28,9.65-28.32,24.24-29.36,26.29-1.21,2.38-.06,.37-5.42-5.64Z"/></g><g id="f" transform="matrix(1.2362542,0,0,1.2362542,-16.87527,-14.591946)"><g id="g"><path id="h" class="m" d="M27.68,59.07v-23.17h2.14v9.33c.9-1.11,1.91-1.93,3.03-2.47,1.12-.55,2.34-.83,3.67-.83,2.37,0,4.38,.86,6.05,2.58,1.68,1.71,2.52,3.79,2.52,6.24s-.84,4.48-2.53,6.19-3.72,2.57-6.1,2.57c-1.36,0-2.6-.29-3.7-.88-1.11-.58-2.08-1.46-2.93-2.63v3.07h-2.14Zm8.6-1.64c1.2,0,2.3-.29,3.32-.88,1.01-.59,1.82-1.42,2.41-2.49,.6-1.07,.91-2.19,.91-3.38s-.3-2.32-.91-3.4c-.6-1.08-1.42-1.91-2.44-2.5-1.01-.6-2.1-.91-3.26-.91s-2.3,.3-3.36,.91c-1.05,.59-1.87,1.4-2.44,2.41-.56,1.01-.84,2.16-.84,3.43,0,1.94,.64,3.55,1.91,4.85,1.28,1.3,2.85,1.95,4.72,1.95Z"/><path id="i" class="m" d="M56.9,41.92c2.57,0,4.7,.93,6.39,2.8,1.54,1.7,2.3,3.71,2.3,6.04,0,2.34-.81,4.38-2.44,6.13-1.62,1.74-3.7,2.61-6.25,2.61s-4.66-.87-6.28-2.61c-1.62-1.75-2.43-3.79-2.43-6.13s.77-4.32,2.3-6.02c1.69-1.87,3.83-2.81,6.41-2.81Zm0,2.1c-1.78,0-3.31,.66-4.59,1.98s-1.92,2.92-1.92,4.79c0,1.21,.29,2.34,.88,3.38,.58,1.04,1.37,1.85,2.37,2.43,.99,.56,2.08,.84,3.27,.84s2.28-.28,3.27-.84c.99-.57,1.78-1.38,2.37-2.43,.58-1.04,.88-2.17,.88-3.38,0-1.87-.65-3.47-1.94-4.79-1.28-1.32-2.81-1.98-4.58-1.98Z"/><path id="j" class="m" d="M77.49,41.92c2.57,0,4.7,.93,6.39,2.8,1.54,1.7,2.3,3.71,2.3,6.04s-.81,4.38-2.44,6.13c-1.62,1.74-3.7,2.61-6.25,2.61s-4.66-.87-6.28-2.61c-1.62-1.75-2.43-3.79-2.43-6.13,0-2.31,.77-4.32,2.3-6.02,1.69-1.87,3.83-2.81,6.41-2.81Zm0,2.1c-1.78,0-3.31,.66-4.59,1.98s-1.92,2.92-1.92,4.79c0,1.21,.29,2.34,.88,3.38,.58,1.04,1.37,1.85,2.37,2.43,.99,.56,2.08,.84,3.27,.84s2.28-.28,3.27-.84c.99-.57,1.78-1.38,2.37-2.43,.58-1.04,.88-2.17,.88-3.38,0-1.87-.65-3.47-1.94-4.79-1.28-1.32-2.81-1.98-4.58-1.98Z"/><path id="k" class="m" d="M90.15,35.9h2.17v13.18l7.73-6.73h3.16l-9.17,7.97,9.71,8.74h-3.04l-8.39-7.51v7.51h-2.17v-23.17Z"/></g></g></g></g></g></svg>