<?xml version="1.0" encoding="UTF-8" standalone="no"?>
<svg
   xmlns:dc="http://purl.org/dc/elements/1.1/"
   xmlns:cc="http://creativecommons.org/ns#"
   xmlns:rdf="http://www.w3.org/1999/02/22-rdf-syntax-ns#"
   xmlns:svg="http://www.w3.org/2000/svg"
   xmlns="http://www.w3.org/2000/svg"
   xmlns:sodipodi="http://sodipodi.sourceforge.net/DTD/sodipodi-0.dtd"
   xmlns:inkscape="http://www.inkscape.org/namespaces/inkscape"
   width="50"
   height="48.653"
   viewBox="0 0 50 48.653"
   fill="none"
   version="1.1"
   id="svg11"
   sodipodi:docname="noun_Home_3565808 1.svg"
   inkscape:version="1.0.1 (0767f8302a, 2020-10-17)">
  <metadata
     id="metadata15">
    <rdf:RDF>
      <cc:Work
         rdf:about="">
        <dc:format>image/svg+xml</dc:format>
        <dc:type
           rdf:resource="http://purl.org/dc/dcmitype/StillImage" />
        <dc:title></dc:title>
      </cc:Work>
    </rdf:RDF>
  </metadata>
  <sodipodi:namedview
     pagecolor="#ffffff"
     bordercolor="#666666"
     borderopacity="1"
     objecttolerance="10"
     gridtolerance="10"
     guidetolerance="10"
     inkscape:pageopacity="0"
     inkscape:pageshadow="2"
     inkscape:window-width="1848"
     inkscape:window-height="1016"
     id="namedview13"
     showgrid="false"
     fit-margin-top="0"
     fit-margin-left="0"
     fit-margin-right="0"
     fit-margin-bottom="0"
     inkscape:zoom="6.96"
     inkscape:cx="43.595151"
     inkscape:cy="53.56102"
     inkscape:window-x="72"
     inkscape:window-y="27"
     inkscape:window-maximized="1"
     inkscape:current-layer="svg11" />
  <g
     clip-path="url(#clip0)"
     id="g4"
     transform="matrix(0.57366367,0,0,0.57366367,-3.6742293,-5.1279681)">
    <path
       d="M 92.8438,47.7813 83.4688,38.4063 56.625,11.5938 C 54.8403,9.88976 52.4676,8.93898 50,8.93898 c -2.4675,0 -4.8402,0.95078 -6.625,2.65482 l -26.8437,26.8125 -9.37503,9.375 c -0.51195,0.5978 -0.77947,1.3668 -0.74909,2.1532 0.03038,0.7865 0.35641,1.5326 0.91296,2.0891 0.55655,0.5566 1.30261,0.8826 2.08909,0.913 0.78647,0.0304 1.55547,-0.2371 2.15327,-0.7491 L 15.625,48.1563 V 84.375 c 0,2.4864 0.9877,4.871 2.7459,6.6291 C 20.1291,92.7623 22.5136,93.75 25,93.75 h 50 c 2.4864,0 4.871,-0.9877 6.6292,-2.7459 1.7581,-1.7581 2.7458,-4.1427 2.7458,-6.6291 V 48.1563 l 4.0313,4.0312 c 0.5978,0.512 1.3668,0.7795 2.1533,0.7491 0.7865,-0.0304 1.5325,-0.3564 2.0891,-0.913 0.5565,-0.5565 0.8825,-1.3026 0.9129,-2.0891 0.0304,-0.7864 -0.2371,-1.5554 -0.7491,-2.1532 z M 78.125,84.375 c 0,0.8288 -0.3292,1.6237 -0.9153,2.2097 C 76.6237,87.1708 75.8288,87.5 75,87.5 H 25 c -0.8288,0 -1.6236,-0.3292 -2.2097,-0.9153 -0.586,-0.586 -0.9153,-1.3809 -0.9153,-2.2097 V 41.9063 L 47.7813,16 c 0.5855,-0.582 1.3775,-0.9087 2.2031,-0.9087 0.8256,0 1.6176,0.3267 2.2031,0.9087 L 78.125,41.9063 Z"
       fill="#000000"
       id="path2" />
  </g>
  <defs
     id="defs9">
    <clipPath
       id="clip0">
      <rect
         width="100"
         height="125"
         fill="#ffffff"
         id="rect6"
         x="0"
         y="0" />
    </clipPath>
  </defs>
</svg>
